# xmcd
#
# Track frame offsets: 
#        182
#        12392
#        23707
#        35907
#        47895
#        60952
#        74222
#        83447
#        94765
#        103570
#        114732
#        124542
#        141272
#        151280
#        170367
#        189810
#        206480
#        238482
#        251877
#        269570
#        278555
#        308772
#        328802
#
# Disc length: 4585 seconds
#
# Revision: 2
# Processed by: cddbd v1.5.2PL0 Copyright (c) Steve Scherf et al.
# Submitted via: ExactAudioCopyFreeDBPlugin 1.0
#
DISCID=4c11e717
DTITLE=Big Joe Turner - Big, Bad and Blue:  The Big Joe Turner Anthology
DYEAR=1994
DGENRE=Rhythm and Blues
TTITLE0=Hide and Seek
TTITLE1=Midnight Cannonball
TTITLE2=Morning, Noon and Night
TTITLE3=The Chicken and the Hawk
TTITLE4=Corrine Corrina
TTITLE5=Boogie Woogie Country Girl
TTITLE6=Rock a While
TTITLE7=Lipstick, Powder and Paint
TTITLE8=Love Roller Coaster
TTITLE9=Teenage Letter
TTITLE10=Jump for Joy
TTITLE11=Low Down Dog
TTITLE12=Morning Glories
TTITLE13=You're Driving Me Crazy
TTITLE14=I Want a Little Girl
TTITLE15=Nobody in Mind
TTITLE16=Rebecca
TTITLE17=Don't You Make Me High
TTITLE18=Time After Time
TTITLE19=My Little Honeydripper
TTITLE20=Honeydripper
TTITLE21=Can't Read, Can't Write Blues
TTITLE22=Crawdad Hole
EXTD=
EXTT0=
EXTT1=
EXTT2=
EXTT3=
EXTT4=
EXTT5=
EXTT6=
EXTT7=
EXTT8=
EXTT9=
EXTT10=
EXTT11=
EXTT12=
EXTT13=
EXTT14=
EXTT15=
EXTT16=
EXTT17=
EXTT18=
EXTT19=
EXTT20=
EXTT21=
EXTT22=
PLAYORDER=
